<?xml version="1.0" encoding="utf-8"?>
<svg xmlns="http://www.w3.org/2000/svg" id="Layer_1" style="enable-background:new 0 0 3000 3000" version="1.1" viewBox="0 0 3000 3000" x="0" y="0">
  <style>.st0{fill:#d3daea}.st3{fill:#f1f2ff}.st4{fill:#575e84}.st6{fill:#fab60c}.st10{fill:#bac8e5}.st13{fill:#e1e6f4}.st15{fill:#ebc0b8}.st16{fill:#1a6cb7}.st17{opacity:.5}.st17,.st21{fill:#fff}.st22{fill:#2b3e6d}.st23{fill:#242650}.st24{fill:#3e4268}.st25{opacity:.2;fill:#1a2326}</style>
  <ellipse class="st0" cx="876.74" cy="2720.69" rx="488.72" ry="56"/>
  <ellipse class="st0" cx="1611.7" cy="2503.58" rx="1037.45" ry="56"/>
  <circle cx="2264.4" cy="383.3" r="160.37" style="fill:#a2b5d7"/>
  <circle cx="2264.4" cy="383.3" r="148.95" style="fill:#c2d0ea"/>
  <path class="st3" d="M2344.08 428.35c-16.35-15.09-23.39-37.88-27.11-59.81l-2.67-15.8c0-21.63-13.53-40.09-32.65-47.34-2.26-.85-3.87-2.97-3.87-5.38v-2.01c0-7.34-5.99-13.33-13.33-13.33h-.1c-7.34 0-13.33 5.99-13.33 13.33v2.01c0 2.41-1.61 4.53-3.87 5.38-19.11 7.24-32.65 25.71-32.65 47.34l-2.67 15.8c-3.72 21.93-10.76 44.72-27.11 59.81-.35.35-.55.7-.55 1.06 0 4.02 25.1 7.45 59.16 8.45 1.01 10.82 10.01 19.32 21.08 19.32s20.07-8.5 21.08-19.32c34.06-1.01 59.16-4.43 59.16-8.45-.02-.35-.22-.71-.57-1.06z"/>
  <path class="st4" d="M2442.15 1394.92c.07-.06 6.68-6.12 16.74-16.65l6.47 6.17c-10.29 10.78-16.9 16.83-17.18 17.08l-6.03-6.6zm32.76-34.13c4.83-5.5 9.98-11.56 15.3-18.1l6.94 5.64a596.35 596.35 0 0 1-15.53 18.37l-6.71-5.91zm29.82-36.8c4.57-6.15 9.14-12.6 13.65-19.31l7.42 4.98c-4.57 6.84-9.25 13.39-13.9 19.66l-7.17-5.33zm26.31-39.26c4.16-6.97 8.03-13.89 11.47-20.58l7.96 4.1c-3.54 6.85-7.49 13.94-11.76 21.07l-7.67-4.59zm21.58-41.85c3.17-7.37 6-14.75 8.39-21.93l8.49 2.84c-2.48 7.41-5.4 15.02-8.67 22.63l-8.21-3.54zm18.52-67.45 8.89.92c-.81 7.87-2.14 15.96-3.97 24.04l-8.72-1.96c1.75-7.74 3.03-15.47 3.8-23zm-1.92-46.1 8.76-1.76c1.57 7.85 2.53 16.05 2.86 24.35l-8.94.35c-.31-7.83-1.21-15.55-2.68-22.94zm-16.29-42.97 7.73-4.49c4.15 7.14 7.7 14.58 10.56 22.12l-8.37 3.18c-2.68-7.08-6.03-14.09-9.92-20.81zm-28.75-36.21 6.22-6.43c5.96 5.78 11.5 11.83 16.42 17.99l-6.98 5.59c-4.69-5.86-9.96-11.63-15.66-17.15zm-36.79-28.74 4.84-7.52c6.97 4.48 13.62 9.16 19.78 13.95l-5.49 7.07c-5.95-4.63-12.38-9.17-19.13-13.5zM2125.72 912.4c7.26 1.97 14.92 3.9 22.96 5.77l-2.03 8.71c-8.15-1.89-15.9-3.85-23.27-5.85l2.34-8.63zm-48.13-6.09 3.19-8.35c6.9 2.63 14.31 5.22 22.26 7.75l-2.73 8.52c-8.1-2.59-15.66-5.23-22.72-7.92zm94.23 16.85c7.5 1.48 15.27 2.93 23.34 4.31l-1.5 8.81c-8.16-1.4-16.01-2.85-23.57-4.35l1.73-8.77zm-138.05-37.19 4.43-7.77c6.47 3.7 13.5 7.29 20.86 10.68l-3.73 8.12c-7.61-3.49-14.86-7.21-21.56-11.03zm184.86 45.22 8.67 1.24c5.03.7 10.02 1.41 14.94 2.15l-1.32 8.84c-4.89-.73-9.84-1.43-14.84-2.13l-8.76-1.25 1.31-8.85zm227.49 67.73 3.77-8.11c7.56 3.52 14.73 7.12 21.53 10.8l-4.26 7.86c-6.65-3.59-13.66-7.11-21.04-10.55zm-180.24-60.58c8.04 1.36 15.9 2.77 23.56 4.22l-1.67 8.79c-7.61-1.45-15.4-2.84-23.37-4.19l1.48-8.82zm-270.9-81.95 6.54-6.1c4.83 5.18 10.62 10.3 17.21 15.23l-5.34 7.17c-7.03-5.24-13.22-10.72-18.41-16.3zm407.37 124.84 2.97-8.44c7.81 2.76 15.3 5.58 22.49 8.47l-3.34 8.3c-7.07-2.85-14.44-5.63-22.12-8.33zm-89.43-33.92c8 1.71 15.79 3.48 23.35 5.31l-2.1 8.69c-7.5-1.81-15.2-3.56-23.13-5.26l1.88-8.74zm44.22 19.91 2.35-8.63c7.93 2.17 15.63 4.41 23.04 6.7l-2.64 8.55c-7.33-2.28-14.94-4.5-22.75-6.62zm-380.79-144.08 8.91-.79c0 .03.35 3.69 3.26 9.68l-8.05 3.91c-3.48-7.18-4.05-11.92-4.12-12.8z"/>
  <path d="m960.15 266.35-66.83 13.58-15.66 87.71-182.75-178.56z" style="fill:#e36c00"/>
  <path class="st6" d="m845.28 298.73-104.42 31.32-45.95-140.97z"/>
  <path d="m893.32 279.93-14.64 82-1.02 5.71-32.38-68.91-150.37-109.65z" style="fill:#ff8d00"/>
  <path class="st4" d="M1560.16 793.71c.05-.08 4.74-7.72 11.52-20.61l7.92 4.16c-6.93 13.19-11.62 20.83-11.82 21.15l-7.62-4.7zm22.11-41.82c3.13-6.61 6.42-13.86 9.73-21.62l8.22 3.52c-3.36 7.88-6.69 15.22-9.87 21.93l-8.08-3.83zm18.55-43.59a503.8 503.8 0 0 0 7.81-22.32l8.5 2.75c-2.51 7.83-5.2 15.42-7.95 22.73l-8.36-3.16zm14.5-44.98c2.08-7.84 3.9-15.56 5.37-22.94l8.78 1.76c-1.51 7.56-3.36 15.46-5.51 23.49l-8.64-2.31zm9.23-46.17c1.02-7.96 1.71-15.83 2.04-23.39l8.94.4c-.35 7.81-1.06 15.93-2.11 24.14l-8.87-1.15zm-.75-69.94 8.8-1.56c1.39 7.79 2.33 15.93 2.79 24.2l-8.92.51c-.44-7.91-1.34-15.7-2.67-23.15zm-14.53-43.79 7.94-4.1c3.67 7.12 6.85 14.73 9.44 22.62l-8.5 2.79c-2.44-7.44-5.43-14.61-8.88-21.31zm-27.47-36.83 6.19-6.44a150.92 150.92 0 0 1 16.24 18.36l-7.17 5.36c-4.53-6.08-9.68-11.89-15.26-17.28zm-37.61-26.9 4.21-7.89c7.32 3.91 14.31 8.21 20.74 12.78l-5.17 7.29c-6.12-4.35-12.78-8.45-19.78-12.18zm-43.28-17.52 2.58-8.56c7.93 2.39 15.61 5.06 22.86 7.97l-3.33 8.3c-7-2.8-14.43-5.4-22.11-7.71zm-377.7-5.31c7.52-.1 15.42-.36 23.66-.77l.44 8.93c-8.36.43-16.35.68-23.99.78l-.11-8.94zm-47.94 7.38.77-8.91c7.36.63 15.19 1.08 23.53 1.33l-.28 8.94c-8.5-.25-16.5-.72-24.02-1.36zm95.23-9.72c7.61-.63 15.49-1.39 23.62-2.28l.98 8.88c-8.23.9-16.17 1.67-23.86 2.3l-.74-8.9zm-142.96 2.22 2.12-8.69c7.24 1.78 14.99 3.3 23 4.53l-1.35 8.84c-8.29-1.27-16.28-2.85-23.77-4.68zm190.17-7.37 8.67-1.19c5.03-.72 10.03-1.4 14.95-2.04l1.16 8.86c-4.9.65-9.85 1.33-14.86 2.03l-8.77 1.2-1.15-8.86zm237.34 2.53 1.4-8.84c8.23 1.3 16.13 2.79 23.67 4.46l-1.93 8.73c-7.39-1.62-15.1-3.08-23.14-4.35zm-189.95-8.66c8.1-.91 16.04-1.71 23.81-2.42l.82 8.91c-7.72.7-15.59 1.5-23.62 2.4l-1.01-8.89zm-282.99-4.27 4.61-7.66c6.07 3.66 13.04 6.99 20.74 9.9l-3.17 8.36c-8.2-3.1-15.66-6.67-22.18-10.6zm425.99 7.96.54-8.93c8.27.5 16.24 1.15 23.95 1.96l-.93 8.9c-7.58-.8-15.43-1.44-23.56-1.93zm-95.31-8.01c8.16-.56 16.14-1 23.92-1.32l.37 8.93c-7.71.32-15.59.76-23.68 1.3l-.61-8.91zm47.99 6.98-.12-8.94c8.22-.1 16.24-.06 24 .1l-.19 8.94c-7.67-.17-15.6-.21-23.69-.1zm-405.73-33.77 8.35-3.21c.01.03 1.35 3.45 5.8 8.41l-6.66 5.97c-5.33-5.94-7.18-10.35-7.49-11.17zM1100.83 864.01c-.09-.02-8.84-1.99-23.23-4.25l1.38-8.84c14.72 2.3 23.46 4.28 23.83 4.36l-1.98 8.73zm-46.72-7.43c-7.27-.83-15.18-1.6-23.6-2.24l.68-8.92c8.54.64 16.57 1.43 23.94 2.27l-1.02 8.89zm-47.24-3.5c-7.65-.24-15.56-.32-23.65-.19l-.14-8.93c8.22-.15 16.28-.05 24.08.19l-.29 8.93zm-47.25.79c-8.09.56-15.99 1.33-23.45 2.32l-1.17-8.88c7.65-1.01 15.72-1.8 24.01-2.37l.61 8.93zm-46.68 6.16c-7.86 1.6-15.54 3.49-22.8 5.62l-2.51-8.59c7.5-2.19 15.42-4.14 23.53-5.79l1.78 8.76zm-65.96 23.27-4.32-7.83c6.93-3.82 14.33-7.35 22.01-10.45l3.36 8.28c-7.35 2.98-14.43 6.34-21.05 10zm-36.76 27.88-6.44-6.19c5.56-5.77 11.74-11.23 18.37-16.24l5.39 7.14c-6.27 4.72-12.09 9.87-17.32 15.29zm-26 37.89-8.09-3.79c3.5-7.48 7.59-14.64 12.14-21.3l7.38 5.06c-4.28 6.26-8.13 13.01-11.43 20.03zm-13.33 44.28-8.83-1.44c1.34-8.19 3.16-16.19 5.4-23.75l8.57 2.54c-2.13 7.2-3.86 14.82-5.14 22.65zm-2.62 46.62-8.93.31c-.3-8.28-.24-16.41.17-24.21l8.93.47c-.4 7.54-.46 15.41-.17 23.43zm116.83 359.21a662.96 662.96 0 0 0-8.36-22.15l8.31-3.3c3.1 7.78 5.91 15.25 8.48 22.45l-8.43 3zm22.46 43-8.68 2.15c-1.78-7.17-3.88-14.73-6.33-22.7l8.55-2.62c2.5 8.12 4.64 15.85 6.46 23.17zm-39.93-87c-3.06-7-6.31-14.21-9.78-21.63l8.09-3.79c3.51 7.5 6.79 14.77 9.87 21.84l-8.18 3.58zm48.22 134.6-8.91.8c-.66-7.43-1.72-15.25-3.13-23.23l8.8-1.57c1.48 8.24 2.56 16.32 3.24 24zm-68.33-177.63-3.93-7.83c-2.3-4.53-4.56-9.04-6.76-13.49l8.01-3.96c2.19 4.43 4.43 8.9 6.72 13.41l3.97 7.91-8.01 3.96zm-74.17-225.46-8.82 1.53c-1.42-8.21-2.56-16.17-3.41-23.85l8.89-.99c.84 7.52 1.95 15.28 3.34 23.31zm53.08 182.59c-3.47-7.38-6.8-14.63-9.97-21.76l8.17-3.65c3.15 7.08 6.45 14.27 9.89 21.59l-8.09 3.82zm87.27 269.23-8.74-1.89c1.5-6.92 2.41-14.6 2.68-22.82l8.93.3c-.29 8.75-1.26 16.97-2.87 24.41zm-129.91-405.78-8.63 2.37c-2.19-7.99-4.15-15.75-5.88-23.3l8.72-1.99c1.71 7.43 3.64 15.07 5.79 22.92zm23.17 92.8a884.68 884.68 0 0 1-8.96-22.21l8.33-3.23a924.13 924.13 0 0 0 8.88 22l-8.25 3.44zm-8.88-47.68-8.43 3c-2.75-7.75-5.3-15.35-7.65-22.75l8.52-2.71c2.32 7.32 4.84 14.84 7.56 22.46zm98.93 394.93-5.73-6.87c.02-.02 2.83-2.39 6.09-8.2l7.8 4.38c-3.9 6.96-7.48 10.13-8.16 10.69z"/>
  <path d="M615.75 1332.17s461.66-595.82 997.89-595.82c503.74 0 995.87 597.02 995.87 597.02s-1036.18 1227.02-1993.76-1.2z" style="fill:#7b829e"/>
  <path d="m2245.73 652.33 5.6 1556.28-1271.34 4.63-6.06-1699.15 1073.5-3.8z" style="fill-rule:evenodd;clip-rule:evenodd;fill:#f1f2ff"/>
  <path class="st10" d="m1218.01 768.55.38 106.85-26.03.09-43.77-65.75.24 65.91-26.03.09-.38-106.85 26.03-.09 43.77 66.06-.24-66.21 26.03-.1zM1306.24 789.09l-39.42.14.08 21.62 34.86-.13.07 20.09-34.86.13.08 23.44 39.42-.14.07 20.85-65.45.24-.38-106.85 65.45-.24.08 20.85zM1321.25 768.18l27.86-.1 15.65 77.73 18.75-77.85 28.62-.1 18.54 77.72 15.25-77.84 28.01-.1-27.47 106.95-31.51.11-17.3-70.26-17.4 70.39-31.51.11-27.49-106.76zM1529.89 875.35c-22.99.08-40.99-11.27-41.83-32.88l27.7-.1c.79 8.21 5.98 12.15 13.29 12.13 7.61-.03 12.47-3.85 12.44-10.09-.07-19.79-53.46-8.94-53.29-46.84-.07-20.24 16.48-31.57 38.85-31.65 23.29-.08 39.01 11.43 40.15 31.82l-28.16.1c-.48-6.85-5.37-10.94-12.37-11.07-6.24-.13-10.95 3.08-10.92 9.78.07 18.57 52.85 10.01 52.98 45.78.08 17.96-13.87 32.93-38.84 33.02zM1614.31 767.13l.31 86.76 34.1-.12.07 20.09-60.13.22-.38-106.85 26.03-.1zM1730.23 787.56l-39.42.14.08 21.62 34.86-.13.07 20.09-34.86.13.08 23.44 39.42-.14.07 20.86-65.45.24-.38-106.85 65.45-.24.08 20.84zM1745.08 766.66l82.65-.3.07 20.85-28.31.1.31 86-26.03.09-.31-86-28.31.1-.07-20.84zM1838.86 766.32l82.65-.3.07 20.85-28.31.1.31 86-26.03.09-.31-86-28.31.1-.07-20.84zM2003.95 786.58l-39.42.14.08 21.62 34.86-.13.07 20.09-34.86.13.08 23.44 39.42-.14.08 20.86-65.45.24-.38-106.85 65.45-.24.07 20.84zM2068.28 765.49c26.18-.09 39.33 14.93 39.39 33.5.05 13.39-7.21 26.05-23.63 30.98l24.81 42.23-29.38.11-22.37-40.26-6.24.02.14 40.34-26.03.09-.38-106.85 43.69-.16zm-1.45 21.62-16.13.06.09 26.48 16.13-.06c9.74-.04 14.29-5.08 14.26-13.45-.02-7.91-4.6-13.06-14.35-13.03z"/>
  <path class="st0" d="M1426.99 989.32h-281.42c-14.3 0-27.76 9.13-31.22 23-5.12 20.54 10.28 38.93 29.97 38.93h282.67c17.09 0 30.95-13.86 30.95-30.95v-.03c0-17.1-13.85-30.95-30.95-30.95zM2076.72 989.32h-493.39c-17.09 0-30.95 13.86-30.95 30.95v.03c0 17.09 13.86 30.95 30.95 30.95h494.64c19.69 0 35.09-18.39 29.97-38.93-3.46-13.87-16.92-23-31.22-23zM1747.34 1139.37h-601.77c-14.3 0-27.76 9.13-31.22 23-5.12 20.54 10.28 38.93 29.97 38.93h603.02c17.09 0 30.95-13.85 30.95-30.95v-.03c0-17.1-13.86-30.95-30.95-30.95z"/>
  <path d="M1118.37 1739.81h992.49v348.08h-992.49z" style="fill-rule:evenodd;clip-rule:evenodd;fill:#d3daea" transform="matrix(1 -.0036 .0036 1 -6.874 5.82)"/>
  <path d="m2245.73 652.33-177.18 37.38-21.12-179.42z" style="fill-rule:evenodd;clip-rule:evenodd;fill:#bac8e5"/>
  <path class="st13" d="M2615.38 1356.83c-32.32 382.2-62.61 740.65-90.95 1077.45-1.5 17.14-18.04 32.09-36.98 33.67-583.56 47.5-1166.82 47.5-1750.46 0-18.87-1.58-35.4-16.54-36.83-33.67-28.49-336.8-58.7-695.25-91.02-1077.45-.75-9.09 1.73-17.74 6.61-24.65.15-.38.45-.75.68-1.05 408.73 493.06 945.17 689.24 1534.82 355.44 167.09-92.9 325.68-216.47 458.27-353.19.15.23.3.45.38.68 4.12 6.61 6.15 14.5 5.48 22.77z"/>
  <path d="M863.01 1593.29s325.4 243.49 648.79 133.74c165.03-56.01 314.48 30.36 314.48 30.36l565.92-220.76s-290.4 222.75-526.25 287.56c-235.86 64.81-603.91-4.25-603.91-4.25s-307.33-130.99-399.03-226.65z" style="opacity:.15;fill:#3e4268"/>
  <path class="st3" d="m2609.89 1334.05-1.73 2.56c-126.35 145.44-278.03 269.98-446.01 368.52-406.78 242.17-871.66 242.02-1245.29-61.18-114.92-87.41-212.11-197.45-300.5-310.2 0-.15-.23-.75-.6-1.58-.75-1.65-.23-2.1.68-1.05 408.73 493.06 945.17 689.24 1534.82 355.44 167.09-92.9 325.68-216.47 458.27-353.19.96-1.05.36.68.36.68z"/>
  <path class="st3" d="M1619.68 1797.46c-509.71 0-872.64 671.3-872.64 671.3s441.72 56.07 873.69 56.07c510.24 0 873.69-58.08 873.69-58.08s-365.03-669.29-874.74-669.29z"/>
  <path class="st10" d="M747.04 2468.77c170.44-315.37 486.07-682.49 872.69-686.33 347.8 5.24 621.62 288.58 801.44 560.61 26.26 40.11 51.14 81.17 73.24 123.71-148.41-234.07-349.62-470.41-603.41-591.04-176.1-83.4-366.46-83.53-542.46.17-253.46 121-454.05 358.32-601.5 592.88z"/>
  <path class="st13" d="m1354.54 206.53 17.24 34.92 38.53 5.6-27.88 27.18 6.58 38.37-34.47-18.12-34.46 18.12 6.58-38.37-27.88-27.18 38.53-5.6z"/>
  <path class="st10" d="m819.31 531.93 13.77 27.89 30.78 4.47L841.58 586l5.26 30.66-27.53-14.48-27.53 14.48 5.26-30.66-22.28-21.71 30.79-4.47z"/>
  <path class="st13" d="m2369.84 712.4 17.25 34.96 38.57 5.6-27.91 27.21 6.59 38.41-34.5-18.14-34.5 18.14 6.59-38.41-27.91-27.21 38.57-5.6z"/>
  <path class="st10" d="M1752 397.61c0 11.85-9.61 21.46-21.46 21.46-11.85 0-21.46-9.61-21.46-21.46 0-11.85 9.61-21.46 21.46-21.46 11.85 0 21.46 9.61 21.46 21.46z"/>
  <path class="st4" d="m573.82 1749.24 14.1 25.65 69.39 124.49-75.98 43.93c-39.44 22.27-90.82 7.76-113.24-33.79-12.17-22.4-13.98-47.65-6.73-70.6 6.25-19.06 18.64-35.17 36.5-45.75l75.96-43.93z"/>
  <path class="st15" d="M1594.71 1173.27a59.1 59.1 0 0 0-25.58 7.74l-993.6 570.81 80.97 145.29 993.73-570.89a59.228 59.228 0 0 0 19.4-17.96l100-146.54-174.92 11.55z"/>
  <path class="st4" d="m1744.95 1197.91 24.69-36.18-44.19 2.92c5.77 11.56 12.23 22.68 19.5 33.26z"/>
  <path class="st16" d="M735.4 1422.98s-69.05 171.48-31.87 239.67c37.18 68.19 115.78 7.25 115.78 7.25l-24.3-105.05s-60.19-39.01-59.61-141.87z"/>
  <path class="st6" d="m574.24 1749.49 990.09-568.79c14.93 20.48 29.76 43.62 43.73 68.7 15.64 28.06 28.68 55.79 38.84 81.8l-989.1 568.23-83.56-149.94z"/>
  <path class="st17" d="M1193.98 1429.81s297.68-79.63 320.08-169.26c22.39-89.63-320.08 169.26-320.08 169.26zM573.82 1749.24l14.1 25.65c-28.62 25.74-83.28 48.25-126.56 64.03 6.25-19.06 18.64-35.17 36.5-45.75l75.96-43.93z"/>
  <path d="m1564.33 1180.69-37.11 21.32c19.18 17.42 26.72 41.88 8.58 77.55-25.58 50.28-92.79 85.03-140.06 111.28-62.67 34.8-133.77 50.55-195.82 85.79-35.73 20.29-59.5 51.65-90.19 77.95-25.04 21.45-52.6 40.09-81.03 56.77-63.53 37.3-133.36 51.89-200.59 79.71-56.36 23.35-98.57 70.15-155.1 92.67-29.48 11.75-55.37 9.88-79.42.5l64.2 115.2 989.1-568.23c-10.16-26.02-23.2-53.74-38.84-81.8-13.96-25.08-28.79-48.21-43.72-68.71z" style="opacity:.1;fill:#231f20"/>
  <path d="M1207.96 1522.67c-7.26 1.91-15.14 6.15-16.82 9.94-1.78 1.99-24.74 6.41-31.64 7.62l-.36 34.55 33.28-4.58s6.83 1.61 18.74 3.2c11.91 1.59 58.08 6.69 56.84 1.02-1.24-5.67-26.93-8.19-26.93-8.19s41.5-2.48 39.67-8.65c-1.83-6.17-37.93-4.88-37.93-4.88s45.36-4.17 47.13-10.88c1.76-6.71-47.45-.89-47.45-.89s41.36-12.1 39.94-18.3c-1.43-6.2-43.15 6.17-52.3 6.85-5.93.44-9.73-3.67-5.1-7.85 4.63-4.18 5.57-16.52 1.32-18.4-4.27-1.89-11.13 17.54-18.39 19.44z" style="fill:#efd9d3"/>
  <g style="opacity:.5">
    <path class="st21" d="M1219.58 1511.2s1.98 1.75 3.2 1.42c1.22-.33 3.15-7.94 2.12-8.29-1.03-.34-5.67 6.21-5.32 6.87zM1275.5 1522.1s.34 2.9 1.43 4.1c1.08 1.21 4.57-2.08 4.43-3.26-.13-1.18-3.16-2.16-5.86-.84zM1283.53 1540.05c-.6.91-.81 3.15.28 4.35 1.08 1.21 5.51-1.71 5.38-2.89-.15-1.18-4.77-2.81-5.66-1.46zM1274.48 1556.11c-.6.91-.77 2.67.31 3.87 1.08 1.21 5.48-1.23 5.34-2.41-.13-1.18-4.76-2.81-5.65-1.46zM1262.58 1572.13c-.6.91-1.44 2.37-.36 3.57 1.08 1.2 5.41-.5 5.28-1.68-.14-1.18-4.04-3.24-4.92-1.89z"/>
  </g>
  <path class="st15" d="M1030.98 2629.56c-1.27 4.44-2.54 62.81-2.54 62.81s13.09 33.79 11.18 36.96c-1.9 3.17-31.49-28.71-32.76-42.67-1.27-13.96-8.88-55.2-8.88-55.2l33-1.9z"/>
  <path class="st22" d="M1000.53 2698.4s2.54-17.77 6.34-14.91c3.81 2.86 26.97 40.29 32.99 43.78 6.03 3.49 9.84-.95 10.79 3.49.95 4.44-10.15 11.74-15.23 8.57-5.07-3.18-36.79-25.7-34.89-40.93z"/>
  <path class="st23" d="m1038.28 2738.69-.63 1.27s-5.39 2.85-12.69 0c-7.3-2.86-27.28-30.77-23.79-37.75 3.49-6.98 11.74 6.03 11.74 6.03s22.2 24.11 25.37 30.45z"/>
  <path class="st15" d="M667.77 2601.61c.55 4.58-7.36 62.43-7.36 62.43s-18.23 31.31-16.85 34.74c1.38 3.43 35.6-23.41 39.05-37 3.44-13.59 17.44-53.12 17.44-53.12l-32.28-7.05z"/>
  <path class="st22" d="M687.03 2674.38s.28-17.95-3.92-15.72c-4.21 2.22-32.96 35.56-39.46 38.05-6.5 2.5-9.56-2.48-11.2 1.75-1.64 4.24 8.18 13.19 13.69 10.85 5.52-2.33 40.38-19.59 40.89-34.93z"/>
  <path class="st23" d="m643.43 2708.24.43 1.35s4.88 3.67 12.53 1.99c7.66-1.67 31.78-26.11 29.43-33.55-2.35-7.44-12.54 4.11-12.54 4.11s-25.72 20.34-29.85 26.1z"/>
  <path class="st24" d="M1110.3 1911.32c71.34 173.18-65.68 738.07-77.09 745.2-15.23 9.52-36.16.95-36.16.95s-244.08-657.96-145.03-781.35c93.45-116.42 233.45-25.05 258.28 35.2z"/>
  <path class="st24" d="M885.65 1930.64c20.7 40.58-18.04 494.62-191.26 707.8 0 0-23.79 5.71-37.12-15.23 0 0-36.17-567.23 78.04-744.25 114.21-177.02 150.34 51.68 150.34 51.68z"/>
  <path class="st25" d="M784.42 2045.52c20.06 7.36 40.24 7.46 60.75 1.89 17.51-4.75 33.99-10.09 52.29-6.15 20.22 4.35 35.26 19.55 54.91 25.15 10.21 2.91 20.94 3.43 31.48 2.42 10.8-1.03 19.39-6.08 28.56-11.51 16.63-9.84 33.27-18.8 53.06-13.48 13.73 3.7 24.65 13.2 31.88 25.23 14.72 24.5 15.78 55.5 17.16 83.26 1.7 34.19 1.93 68.58 1.62 102.92 17.66-136.87 23.33-273.14-5.83-343.95-21.65-52.55-164.32-147.29-233.29-77.24-39.16-30.22-89.42-36.13-141.69 44.88-12.25 18.99-22.76 42.5-31.78 69.29 2.62 43.78 41.32 82.77 80.88 97.29z"/>
  <path d="M831.55 1334.56c44.48 15.59 130.28 192.27 210.23 321.7 79.94 129.43 97.08 291.23 97.08 291.23s-213.49 67.88-295.34 58.36l2.54-95.34-48.55 75.33s-16.5 58.73-86.93-25.03c0 0-55.2-55.2-20.94-93.27 34.26-38.07 88.39-160.15 51.39-277.9-55.76-177.47 48.45-269.83 90.52-255.08z" style="fill:#337ccc"/>
  <path class="st15" d="M860.8 1223.5c6.61-6.46 31.55 43.38 23.13 61.89-8.41 18.52-25.39 27.46-25.39 27.46l-3.1 32.85-26.26-16.84c.01 0-19.31-55.56 31.62-105.36z"/>
  <path class="st25" d="m858.54 1312.85-15.04-7.79s2.96 7.13 4.91 16.91c1.95 9.78 7.99 12.59 7.99 12.59l2.14-21.71z"/>
  <path class="st16" d="M1038.95 1784.3s37.16-28.05 44.18-21.04c7.01 7.01 2.1 12.62 2.1 12.62s-14.03 18.94-46.28 8.42zM843.96 1327.27c40.22 8.48 146.19 211.02 146.19 211.02l190.92-6.07 5.48 48.51s-130.92 83.5-280.57 62.56c-149.67-20.93-100.57-324.15-62.02-316.02z"/>
  <path class="st24" d="M840.19 1286.56s29.87 119.33-87.15 180.02c-85.04 44.11-196.2 81.05-236.95-24.72-40.76-105.77-146.88 16.72-178.31-53.9-31.42-70.62 35.05-106.41-53.02-159.72-88.06-53.32-80.91-168.09 19.75-174.91 100.65-6.82 151.81 91.54 241.99 128.74 90.17 37.19 165.05 5.87 228.3-3.6s101.9 11.09 94.32 41.55c-7.58 30.46-17.69 37.3-17.69 37.3s16.66 14.61 8.64 17.54c-8.02 2.92-14.64-4.91-14.64-4.91s-12.6 4.79-5.24 16.61z"/>
</svg>